<svg width="14" height="105" viewBox="0 0 14 105" fill="none" xmlns="http://www.w3.org/2000/svg">
<path d="M7.68 8.64C7.424 8.704 7.104 8.736 6.72 8.736C6.352 8.736 6.032 8.704 5.76 8.64C5.504 8.704 5.184 8.736 4.8 8.736C4.432 8.736 4.112 8.704 3.84 8.64L3.84 7.68C3.584 7.744 3.264 7.776 2.88 7.776C2.512 7.776 2.192 7.744 1.92 7.68L1.92 6.72C1.664 6.784 1.344 6.816 0.96 6.816C0.592 6.816 0.272 6.784 -2.93741e-07 6.72L-4.19629e-08 0.959999C0.272 0.895999 0.592 0.863999 0.96 0.863999C1.344 0.863999 1.664 0.895999 1.92 0.959999C2.192 0.895999 2.512 0.863999 2.88 0.863999C3.264 0.863999 3.584 0.895999 3.84 0.959999C4.112 0.895999 4.432 0.863999 4.8 0.863999C5.184 0.863999 5.504 0.895999 5.76 0.959999C6.032 0.895999 6.352 0.863999 6.72 0.864C7.104 0.864 7.424 0.896 7.68 0.96C7.952 0.896 8.272 0.864 8.64 0.864C9.024 0.864 9.344 0.896 9.6 0.96C9.872 0.896 10.192 0.864 10.56 0.864C10.944 0.864 11.264 0.896 11.52 0.96C11.792 0.896 12.112 0.864 12.48 0.864C12.864 0.864 13.184 0.896 13.44 0.96L13.44 6.72C13.184 6.784 12.864 6.816 12.48 6.816C12.112 6.816 11.792 6.784 11.52 6.72L11.52 7.68C11.264 7.744 10.944 7.776 10.56 7.776C10.192 7.776 9.872 7.744 9.6 7.68L9.6 8.64C9.344 8.704 9.024 8.736 8.64 8.736C8.272 8.736 7.952 8.704 7.68 8.64ZM3.84 6.72C4.112 6.656 4.432 6.624 4.8 6.624C5.184 6.624 5.504 6.656 5.76 6.72C6.032 6.656 6.352 6.624 6.72 6.624C7.104 6.624 7.424 6.656 7.68 6.72C7.952 6.656 8.272 6.624 8.64 6.624C9.024 6.624 9.344 6.656 9.6 6.72L9.6 5.76C9.872 5.696 10.192 5.664 10.56 5.664C10.944 5.664 11.264 5.696 11.52 5.76L11.52 2.88C11.264 2.944 10.944 2.976 10.56 2.976C10.192 2.976 9.872 2.944 9.6 2.88C9.344 2.944 9.024 2.976 8.64 2.976C8.272 2.976 7.952 2.944 7.68 2.88C7.424 2.944 7.104 2.976 6.72 2.976C6.352 2.976 6.032 2.944 5.76 2.88C5.504 2.944 5.184 2.976 4.8 2.976C4.432 2.976 4.112 2.944 3.84 2.88C3.584 2.944 3.264 2.976 2.88 2.976C2.512 2.976 2.192 2.944 1.92 2.88L1.92 5.76C2.192 5.696 2.512 5.664 2.88 5.664C3.264 5.664 3.584 5.696 3.84 5.76L3.84 6.72ZM5.76 13.4494C5.504 13.5134 5.184 13.5454 4.8 13.5454C4.432 13.5454 4.112 13.5134 3.84 13.4494C3.584 13.5134 3.264 13.5454 2.88 13.5454C2.512 13.5454 2.192 13.5134 1.92 13.4494L1.92 17.2894C1.664 17.3534 1.344 17.3854 0.959999 17.3854C0.591999 17.3854 0.271999 17.3534 -7.55743e-07 17.2894L-5.03965e-07 11.5294C0.272 11.4654 0.592 11.4334 0.96 11.4334C1.344 11.4334 1.664 11.4654 1.92 11.5294C2.192 11.4654 2.512 11.4334 2.88 11.4334C3.264 11.4334 3.584 11.4654 3.84 11.5294C4.112 11.4654 4.432 11.4334 4.8 11.4334C5.184 11.4334 5.504 11.4654 5.76 11.5294C6.032 11.4654 6.352 11.4334 6.72 11.4334C7.104 11.4334 7.424 11.4654 7.68 11.5294C7.952 11.4654 8.272 11.4334 8.64 11.4334C9.024 11.4334 9.344 11.4654 9.6 11.5294C9.872 11.4654 10.192 11.4334 10.56 11.4334C10.944 11.4334 11.264 11.4654 11.52 11.5294C11.792 11.4654 12.112 11.4334 12.48 11.4334C12.864 11.4334 13.184 11.4654 13.44 11.5294L13.44 17.2894C13.184 17.3534 12.864 17.3854 12.48 17.3854C12.112 17.3854 11.792 17.3534 11.52 17.2894L11.52 13.4494C11.264 13.5134 10.944 13.5454 10.56 13.5454C10.192 13.5454 9.872 13.5134 9.6 13.4494C9.344 13.5134 9.024 13.5454 8.64 13.5454C8.272 13.5454 7.952 13.5134 7.68 13.4494L7.68 17.2894C7.424 17.3534 7.104 17.3854 6.72 17.3854C6.352 17.3854 6.032 17.3534 5.76 17.2894L5.76 13.4494ZM5.76 27.8587C5.504 27.9227 5.184 27.9547 4.8 27.9547C4.432 27.9547 4.112 27.9227 3.84 27.8587C3.584 27.9227 3.264 27.9547 2.88 27.9547C2.512 27.9547 2.192 27.9227 1.92 27.8587L1.92 26.8987C1.664 26.9627 1.344 26.9947 0.959999 26.9947C0.591999 26.9947 0.271999 26.9627 -1.17578e-06 26.8987L-9.24004e-07 21.1387C0.271999 21.0747 0.591999 21.0427 0.959999 21.0427C1.344 21.0427 1.664 21.0747 1.92 21.1387L1.92 20.1787C2.192 20.1147 2.512 20.0827 2.88 20.0827C3.264 20.0827 3.584 20.1147 3.84 20.1787L3.84 22.0987C3.584 22.1627 3.264 22.1947 2.88 22.1947C2.512 22.1947 2.192 22.1627 1.92 22.0987L1.92 25.9387C2.192 25.8747 2.512 25.8427 2.88 25.8427C3.264 25.8427 3.584 25.8747 3.84 25.9387C4.112 25.8747 4.432 25.8427 4.8 25.8427C5.184 25.8427 5.504 25.8747 5.76 25.9387L5.76 21.1387C6.032 21.0747 6.352 21.0427 6.72 21.0427C7.104 21.0427 7.424 21.0747 7.68 21.1387L7.68 20.1787C7.952 20.1147 8.272 20.0827 8.64 20.0827C9.024 20.0827 9.344 20.1147 9.6 20.1787C9.872 20.1147 10.192 20.0827 10.56 20.0827C10.944 20.0827 11.264 20.1147 11.52 20.1787L11.52 21.1387C11.792 21.0747 12.112 21.0427 12.48 21.0427C12.864 21.0427 13.184 21.0747 13.44 21.1387L13.44 26.8988C13.184 26.9627 12.864 26.9947 12.48 26.9947C12.112 26.9947 11.792 26.9627 11.52 26.8988L11.52 27.8588C11.264 27.9228 10.944 27.9548 10.56 27.9548C10.192 27.9548 9.872 27.9228 9.6 27.8587L9.6 25.9387C9.872 25.8747 10.192 25.8428 10.56 25.8428C10.944 25.8428 11.264 25.8748 11.52 25.9387L11.52 22.0987C11.264 22.1627 10.944 22.1947 10.56 22.1947C10.192 22.1947 9.872 22.1627 9.6 22.0987C9.344 22.1627 9.024 22.1947 8.64 22.1947C8.272 22.1947 7.952 22.1627 7.68 22.0987L7.68 26.8988C7.424 26.9627 7.104 26.9947 6.72 26.9947C6.352 26.9947 6.032 26.9627 5.76 26.8987L5.76 27.8587ZM3.84 37.4681C3.584 37.5321 3.264 37.5641 2.88 37.5641C2.512 37.5641 2.192 37.5321 1.92 37.4681L1.92 36.5081C1.664 36.5721 1.344 36.6041 0.959998 36.6041C0.591998 36.6041 0.271998 36.5721 -1.59582e-06 36.5081L-1.38601e-06 31.7081C0.271999 31.6441 0.591999 31.6121 0.959999 31.6121C1.344 31.6121 1.664 31.6441 1.92 31.7081L1.92 30.7481C2.192 30.6841 2.512 30.6521 2.88 30.6521C3.264 30.6521 3.584 30.6841 3.84 30.7481L3.84 29.7881C4.112 29.7241 4.432 29.6921 4.8 29.6921C5.184 29.6921 5.504 29.7241 5.76 29.7881C6.032 29.7241 6.352 29.6921 6.72 29.6921C7.104 29.6921 7.424 29.7241 7.68 29.7881C7.952 29.7241 8.272 29.6921 8.64 29.6921C9.024 29.6921 9.344 29.7241 9.6 29.7881L9.6 30.7481C9.872 30.6841 10.192 30.6521 10.56 30.6521C10.944 30.6521 11.264 30.6841 11.52 30.7481L11.52 31.7081C11.792 31.6441 12.112 31.6121 12.48 31.6121C12.864 31.6121 13.184 31.6441 13.44 31.7081L13.44 36.5081C13.184 36.5721 12.864 36.6041 12.48 36.6041C12.112 36.6041 11.792 36.5721 11.52 36.5081L11.52 37.4681C11.264 37.5321 10.944 37.5641 10.56 37.5641C10.192 37.5641 9.872 37.5321 9.6 37.4681L9.6 35.5481C9.872 35.4841 10.192 35.4521 10.56 35.4521C10.944 35.4521 11.264 35.4841 11.52 35.5481L11.52 32.6681C11.264 32.7321 10.944 32.7641 10.56 32.7641C10.192 32.7641 9.872 32.7321 9.6 32.6681L9.6 31.7081C9.344 31.7721 9.024 31.8041 8.64 31.8041C8.272 31.8041 7.952 31.7721 7.68 31.7081C7.424 31.7721 7.104 31.8041 6.72 31.8041C6.352 31.8041 6.032 31.7721 5.76 31.7081C5.504 31.7721 5.184 31.8041 4.8 31.8041C4.432 31.8041 4.112 31.7721 3.84 31.7081L3.84 32.6681C3.584 32.7321 3.264 32.7641 2.88 32.7641C2.512 32.7641 2.192 32.7321 1.92 32.6681L1.92 35.5481C2.192 35.4841 2.512 35.4521 2.88 35.4521C3.264 35.4521 3.584 35.4841 3.84 35.5481L3.84 37.4681ZM1.92 47.0775C1.664 47.1415 1.344 47.1735 0.959998 47.1735C0.591998 47.1735 0.271998 47.1415 -2.05782e-06 47.0775L-1.9739e-06 45.1575C0.271998 45.0935 0.591998 45.0615 0.959998 45.0615C1.344 45.0615 1.664 45.0935 1.92 45.1575L1.92 44.4375C2.192 44.3735 2.512 44.3415 2.88 44.3415C3.264 44.3415 3.584 44.3735 3.84 44.4375L3.84 43.7175C4.112 43.6535 4.432 43.6215 4.8 43.6215C5.184 43.6215 5.504 43.6535 5.76 43.7175L5.76 41.3175C5.504 41.3815 5.184 41.4135 4.8 41.4135C4.432 41.4135 4.112 41.3815 3.84 41.3175C3.584 41.3815 3.264 41.4135 2.88 41.4135C2.512 41.4135 2.192 41.3815 1.92 41.3175C1.664 41.3815 1.344 41.4135 0.959998 41.4135C0.591998 41.4135 0.271998 41.3815 -1.80605e-06 41.3175L-1.72212e-06 39.3975C0.271998 39.3335 0.591998 39.3015 0.959998 39.3015C1.344 39.3015 1.664 39.3335 1.92 39.3975C2.192 39.3335 2.512 39.3015 2.88 39.3015C3.264 39.3015 3.584 39.3335 3.84 39.3975C4.112 39.3335 4.432 39.3015 4.8 39.3015C5.184 39.3015 5.504 39.3335 5.76 39.3975C6.032 39.3335 6.352 39.3015 6.72 39.3015C7.104 39.3015 7.424 39.3335 7.68 39.3975C7.952 39.3335 8.272 39.3015 8.64 39.3015C9.024 39.3015 9.344 39.3335 9.6 39.3975C9.872 39.3335 10.192 39.3015 10.56 39.3015C10.944 39.3015 11.264 39.3335 11.52 39.3975C11.792 39.3335 12.112 39.3015 12.48 39.3015C12.864 39.3015 13.184 39.3335 13.44 39.3975L13.44 46.1175C13.184 46.1815 12.864 46.2135 12.48 46.2135C12.112 46.2135 11.792 46.1815 11.52 46.1175L11.52 47.0775C11.264 47.1415 10.944 47.1735 10.56 47.1735C10.192 47.1735 9.872 47.1415 9.6 47.0775L9.6 46.5975C9.344 46.6615 9.024 46.6935 8.64 46.6935C8.272 46.6935 7.952 46.6615 7.68 46.5975L7.68 45.1575C7.424 45.2215 7.104 45.2535 6.72 45.2535C6.352 45.2535 6.032 45.2215 5.76 45.1575L5.76 45.6375C5.504 45.7015 5.184 45.7335 4.8 45.7335C4.432 45.7335 4.112 45.7015 3.84 45.6375L3.84 46.3575C3.584 46.4215 3.264 46.4535 2.88 46.4535C2.512 46.4535 2.192 46.4215 1.92 46.3575L1.92 47.0775ZM7.68 44.6775C7.952 44.6135 8.272 44.5815 8.64 44.5815C9.024 44.5815 9.344 44.6135 9.6 44.6775C9.872 44.6135 10.192 44.5815 10.56 44.5815C10.944 44.5815 11.264 44.6135 11.52 44.6775L11.52 41.3175C11.264 41.3815 10.944 41.4135 10.56 41.4135C10.192 41.4135 9.872 41.3815 9.6 41.3175C9.344 41.3815 9.024 41.4135 8.64 41.4135C8.272 41.4135 7.952 41.3815 7.68 41.3175L7.68 44.6775ZM1.92 55.2469C1.664 55.3109 1.344 55.3429 0.959998 55.3429C0.591998 55.3429 0.271998 55.3109 -2.41492e-06 55.2469L-2.2051e-06 50.4469C0.271998 50.3829 0.591998 50.3509 0.959998 50.3509C1.344 50.3509 1.664 50.3829 1.92 50.4469L1.92 51.8869C2.192 51.8229 2.512 51.7909 2.88 51.7909C3.264 51.7909 3.584 51.8229 3.84 51.8869C4.112 51.8229 4.432 51.7909 4.8 51.7909C5.184 51.7909 5.504 51.8229 5.76 51.8869C6.032 51.8229 6.352 51.7909 6.72 51.7909C7.104 51.7909 7.424 51.8229 7.68 51.8869C7.952 51.8229 8.272 51.7909 8.64 51.7909C9.024 51.7909 9.344 51.8229 9.6 51.8869C9.872 51.8229 10.192 51.7909 10.56 51.7909C10.944 51.7909 11.264 51.8229 11.52 51.8869L11.52 50.4469C11.792 50.3829 12.112 50.3509 12.48 50.3509C12.864 50.3509 13.184 50.3829 13.44 50.4469L13.44 55.2469C13.184 55.3109 12.864 55.3429 12.48 55.3429C12.112 55.3429 11.792 55.3109 11.52 55.2469L11.52 53.8069C11.264 53.8709 10.944 53.9029 10.56 53.9029C10.192 53.9029 9.872 53.8709 9.6 53.8069C9.344 53.8709 9.024 53.9029 8.64 53.9029C8.272 53.9029 7.952 53.8709 7.68 53.8069C7.424 53.8709 7.104 53.9029 6.72 53.9029C6.352 53.9029 6.032 53.8709 5.76 53.8069C5.504 53.8709 5.184 53.9029 4.8 53.9029C4.432 53.9029 4.112 53.8709 3.84 53.8069C3.584 53.8709 3.264 53.9029 2.88 53.9029C2.512 53.9029 2.192 53.8709 1.92 53.8069L1.92 55.2469ZM10.56 66.3923C10.192 66.3923 9.872 66.3603 9.6 66.2962C9.344 66.3603 9.024 66.3923 8.64 66.3923C8.272 66.3923 7.952 66.3602 7.68 66.2962L7.68 65.3363C7.424 65.4002 7.104 65.4322 6.72 65.4322C6.352 65.4322 6.032 65.4002 5.76 65.3362L5.76 60.5362C5.504 60.6002 5.184 60.6322 4.8 60.6322C4.432 60.6322 4.112 60.6002 3.84 60.5362C3.584 60.6002 3.264 60.6322 2.88 60.6322C2.512 60.6322 2.192 60.6002 1.92 60.5362C1.664 60.6002 1.344 60.6322 0.959997 60.6322C0.591997 60.6322 0.271997 60.6002 -2.64612e-06 60.5362L-2.5622e-06 58.6162C0.271997 58.5522 0.591997 58.5202 0.959998 58.5202C1.344 58.5202 1.664 58.5522 1.92 58.6162C2.192 58.5522 2.512 58.5202 2.88 58.5202C3.264 58.5202 3.584 58.5522 3.84 58.6162C4.112 58.5522 4.432 58.5202 4.8 58.5202C5.184 58.5202 5.504 58.5522 5.76 58.6162C6.032 58.5522 6.352 58.5202 6.72 58.5202C7.104 58.5202 7.424 58.5522 7.68 58.6162C7.952 58.5522 8.272 58.5202 8.64 58.5202C9.024 58.5202 9.344 58.5522 9.6 58.6162C9.872 58.5522 10.192 58.5202 10.56 58.5202C10.944 58.5202 11.264 58.5522 11.52 58.6162C11.792 58.5522 12.112 58.5202 12.48 58.5202C12.864 58.5202 13.184 58.5522 13.44 58.6162L13.44 65.3363C13.184 65.4002 12.864 65.4322 12.48 65.4322C12.112 65.4322 11.792 65.4002 11.52 65.3363L11.52 66.2963C11.264 66.3603 10.944 66.3923 10.56 66.3923ZM7.68 64.3762C7.952 64.3122 8.272 64.2803 8.64 64.2803C9.024 64.2803 9.344 64.3122 9.6 64.3762C9.872 64.3122 10.192 64.2803 10.56 64.2803C10.944 64.2803 11.264 64.3123 11.52 64.3762L11.52 60.5362C11.264 60.6002 10.944 60.6322 10.56 60.6322C10.192 60.6322 9.872 60.6002 9.6 60.5362C9.344 60.6002 9.024 60.6322 8.64 60.6322C8.272 60.6322 7.952 60.6002 7.68 60.5362L7.68 64.3762ZM12.48 76.0016C12.112 76.0016 11.792 75.9696 11.52 75.9056L11.52 73.0256C11.264 73.0896 10.944 73.1216 10.56 73.1216C10.192 73.1216 9.872 73.0896 9.6 73.0256C9.344 73.0896 9.024 73.1216 8.64 73.1216C8.272 73.1216 7.952 73.0896 7.68 73.0256C7.424 73.0896 7.104 73.1216 6.72 73.1216C6.352 73.1216 6.032 73.0896 5.76 73.0256C5.504 73.0896 5.184 73.1216 4.8 73.1216C4.432 73.1216 4.112 73.0896 3.84 73.0256C3.584 73.0896 3.264 73.1216 2.88 73.1216C2.512 73.1216 2.192 73.0896 1.92 73.0256C1.664 73.0896 1.344 73.1216 0.959997 73.1216C0.591997 73.1216 0.271997 73.0896 -3.19205e-06 73.0256L-3.10813e-06 71.1056C0.271997 71.0416 0.591997 71.0096 0.959997 71.0096C1.344 71.0096 1.664 71.0416 1.92 71.1056C2.192 71.0416 2.512 71.0096 2.88 71.0096C3.264 71.0096 3.584 71.0416 3.84 71.1056C4.112 71.0416 4.432 71.0096 4.8 71.0096C5.184 71.0096 5.504 71.0416 5.76 71.1056C6.032 71.0416 6.352 71.0096 6.72 71.0096C7.104 71.0096 7.424 71.0416 7.68 71.1056C7.952 71.0416 8.272 71.0096 8.64 71.0096C9.024 71.0096 9.344 71.0416 9.6 71.1056C9.872 71.0416 10.192 71.0096 10.56 71.0096C10.944 71.0096 11.264 71.0416 11.52 71.1056L11.52 68.2256C11.792 68.1616 12.112 68.1296 12.48 68.1296C12.864 68.1296 13.184 68.1616 13.44 68.2256L13.44 75.9056C13.184 75.9696 12.864 76.0016 12.48 76.0016ZM1.92 84.075C1.664 84.139 1.344 84.171 0.959996 84.171C0.591996 84.171 0.271996 84.139 -3.67503e-06 84.075L-3.46522e-06 79.275C0.271997 79.211 0.591997 79.179 0.959997 79.179C1.344 79.179 1.664 79.211 1.92 79.275L1.92 80.715C2.192 80.651 2.512 80.619 2.88 80.619C3.264 80.619 3.584 80.651 3.84 80.715C4.112 80.651 4.432 80.619 4.8 80.619C5.184 80.619 5.504 80.651 5.76 80.715C6.032 80.651 6.352 80.619 6.72 80.619C7.104 80.619 7.424 80.651 7.68 80.715C7.952 80.651 8.272 80.619 8.64 80.619C9.024 80.619 9.344 80.651 9.6 80.715C9.872 80.651 10.192 80.619 10.56 80.619C10.944 80.619 11.264 80.651 11.52 80.715L11.52 79.275C11.792 79.211 12.112 79.179 12.48 79.179C12.864 79.179 13.184 79.211 13.44 79.275L13.44 84.075C13.184 84.139 12.864 84.171 12.48 84.171C12.112 84.171 11.792 84.139 11.52 84.075L11.52 82.635C11.264 82.699 10.944 82.731 10.56 82.731C10.192 82.731 9.872 82.699 9.6 82.635C9.344 82.699 9.024 82.731 8.64 82.731C8.272 82.731 7.952 82.699 7.68 82.635C7.424 82.699 7.104 82.731 6.72 82.731C6.352 82.731 6.032 82.699 5.76 82.635C5.504 82.699 5.184 82.731 4.8 82.731C4.432 82.731 4.112 82.699 3.84 82.635C3.584 82.699 3.264 82.731 2.88 82.731C2.512 82.731 2.192 82.699 1.92 82.635L1.92 84.075ZM7.68 95.1244C7.424 95.1884 7.104 95.2204 6.72 95.2204C6.352 95.2204 6.032 95.1884 5.76 95.1244C5.504 95.1884 5.184 95.2204 4.8 95.2204C4.432 95.2204 4.112 95.1884 3.84 95.1244L3.84 94.4044C3.584 94.4684 3.264 94.5004 2.88 94.5004C2.512 94.5004 2.192 94.4684 1.92 94.4044L1.92 93.2044C1.664 93.2684 1.344 93.3004 0.959996 93.3004C0.591996 93.3004 0.271996 93.2684 -4.07409e-06 93.2044L-3.90624e-06 89.3644C0.271996 89.3004 0.591996 89.2684 0.959996 89.2684C1.344 89.2684 1.664 89.3004 1.92 89.3644L1.92 88.1644C2.192 88.1004 2.512 88.0684 2.88 88.0684C3.264 88.0684 3.584 88.1004 3.84 88.1644L3.84 87.4444C4.112 87.3804 4.432 87.3484 4.8 87.3484C5.184 87.3484 5.504 87.3804 5.76 87.4444C6.032 87.3804 6.352 87.3484 6.72 87.3484C7.104 87.3484 7.424 87.3804 7.68 87.4444C7.952 87.3804 8.272 87.3484 8.64 87.3484C9.024 87.3484 9.344 87.3804 9.6 87.4444L9.6 88.1644C9.872 88.1004 10.192 88.0684 10.56 88.0684C10.944 88.0684 11.264 88.1004 11.52 88.1644L11.52 89.3644C11.792 89.3004 12.112 89.2684 12.48 89.2684C12.864 89.2684 13.184 89.3004 13.44 89.3644L13.44 93.2044C13.184 93.2684 12.864 93.3004 12.48 93.3004C12.112 93.3004 11.792 93.2684 11.52 93.2044L11.52 94.4044C11.264 94.4684 10.944 94.5004 10.56 94.5004C10.192 94.5004 9.872 94.4684 9.6 94.4044L9.6 95.1244C9.344 95.1884 9.024 95.2204 8.64 95.2204C8.272 95.2204 7.952 95.1884 7.68 95.1244ZM3.84 93.2044C4.112 93.1404 4.432 93.1084 4.8 93.1084C5.184 93.1084 5.504 93.1404 5.76 93.2044C6.032 93.1404 6.352 93.1084 6.72 93.1084C7.104 93.1084 7.424 93.1404 7.68 93.2044C7.952 93.1404 8.272 93.1084 8.64 93.1084C9.024 93.1084 9.344 93.1404 9.6 93.2044L9.6 92.4844C9.872 92.4204 10.192 92.3884 10.56 92.3884C10.944 92.3884 11.264 92.4204 11.52 92.4844L11.52 90.0844C11.264 90.1484 10.944 90.1804 10.56 90.1804C10.192 90.1804 9.872 90.1484 9.6 90.0844L9.6 89.3644C9.344 89.4284 9.024 89.4604 8.64 89.4604C8.272 89.4604 7.952 89.4284 7.68 89.3644C7.424 89.4284 7.104 89.4604 6.72 89.4604C6.352 89.4604 6.032 89.4284 5.76 89.3644C5.504 89.4284 5.184 89.4604 4.8 89.4604C4.432 89.4604 4.112 89.4284 3.84 89.3644L3.84 90.0844C3.584 90.1484 3.264 90.1804 2.88 90.1804C2.512 90.1804 2.192 90.1484 1.92 90.0844L1.92 92.4844C2.192 92.4204 2.512 92.3884 2.88 92.3884C3.264 92.3884 3.584 92.4204 3.84 92.4844L3.84 93.2044ZM11.52 104.734C11.264 104.798 10.944 104.83 10.56 104.83C10.192 104.83 9.872 104.798 9.6 104.734C9.344 104.798 9.024 104.83 8.64 104.83C8.272 104.83 7.952 104.798 7.68 104.734C7.424 104.798 7.104 104.83 6.72 104.83C6.352 104.83 6.032 104.798 5.76 104.734C5.504 104.798 5.184 104.83 4.8 104.83C4.432 104.83 4.112 104.798 3.84 104.734C3.584 104.798 3.264 104.83 2.88 104.83C2.512 104.83 2.192 104.798 1.92 104.734C1.664 104.798 1.344 104.83 0.959995 104.83C0.591995 104.83 0.271995 104.798 -4.57806e-06 104.734L-4.49413e-06 102.814C0.271996 102.75 0.591996 102.718 0.959996 102.718C1.344 102.718 1.664 102.75 1.92 102.814L1.92 101.614C2.192 101.55 2.512 101.518 2.88 101.518C3.264 101.518 3.584 101.55 3.84 101.614L3.84 100.894C4.112 100.83 4.432 100.798 4.8 100.798C5.184 100.798 5.504 100.83 5.76 100.894L5.76 99.9337C6.032 99.8697 6.352 99.8377 6.72 99.8377C7.104 99.8377 7.424 99.8697 7.68 99.9337L7.68 98.9737C7.424 99.0377 7.104 99.0697 6.72 99.0697C6.352 99.0697 6.032 99.0377 5.76 98.9737C5.504 99.0377 5.184 99.0697 4.8 99.0697C4.432 99.0697 4.112 99.0377 3.84 98.9737C3.584 99.0377 3.264 99.0697 2.88 99.0697C2.512 99.0697 2.192 99.0377 1.92 98.9737C1.664 99.0377 1.344 99.0697 0.959996 99.0697C0.591996 99.0697 0.271996 99.0377 -4.32628e-06 98.9737L-4.24235e-06 97.0537C0.271996 96.9897 0.591996 96.9577 0.959996 96.9577C1.344 96.9577 1.664 96.9897 1.92 97.0537C2.192 96.9897 2.512 96.9577 2.88 96.9577C3.264 96.9577 3.584 96.9897 3.84 97.0537C4.112 96.9897 4.432 96.9577 4.8 96.9577C5.184 96.9577 5.504 96.9897 5.76 97.0537C6.032 96.9897 6.352 96.9577 6.72 96.9577C7.104 96.9577 7.424 96.9897 7.68 97.0537C7.952 96.9897 8.272 96.9577 8.64 96.9577C9.024 96.9577 9.344 96.9897 9.6 97.0537C9.872 96.9897 10.192 96.9577 10.56 96.9577C10.944 96.9577 11.264 96.9897 11.52 97.0537C11.792 96.9897 12.112 96.9577 12.48 96.9577C12.864 96.9577 13.184 96.9897 13.44 97.0537L13.44 99.4537C13.184 99.5177 12.864 99.5497 12.48 99.5497C12.112 99.5497 11.792 99.5177 11.52 99.4537L11.52 100.174C11.264 100.238 10.944 100.27 10.56 100.27C10.192 100.27 9.872 100.238 9.6 100.174L9.6 100.894C9.344 100.958 9.024 100.99 8.64 100.99C8.272 100.99 7.952 100.958 7.68 100.894L7.68 101.854C7.424 101.918 7.104 101.95 6.72 101.95C6.352 101.95 6.032 101.918 5.76 101.854L5.76 102.814C6.032 102.75 6.352 102.718 6.72 102.718C7.104 102.718 7.424 102.75 7.68 102.814C7.952 102.75 8.272 102.718 8.64 102.718C9.024 102.718 9.344 102.75 9.6 102.814C9.872 102.75 10.192 102.718 10.56 102.718C10.944 102.718 11.264 102.75 11.52 102.814C11.792 102.75 12.112 102.718 12.48 102.718C12.864 102.718 13.184 102.75 13.44 102.814L13.44 104.734C13.184 104.798 12.864 104.83 12.48 104.83C12.112 104.83 11.792 104.798 11.52 104.734Z" fill="black"/>
</svg>
