<svg width="36" height="32" viewBox="0 0 36 32" fill="none" xmlns="http://www.w3.org/2000/svg">
<mask id="path-1-inside-1_731_7061" fill="white">
<path d="M23.7458 -6.09285e-05C26.0037 -6.0907e-05 28.0901 1.20452 29.2191 3.15992L34.8078 12.84C35.9368 14.7954 35.9368 17.2045 34.8078 19.1599L29.2191 28.84C28.0901 30.7954 26.0037 31.9999 23.7458 31.9999H12.5683C10.3104 31.9999 8.22398 30.7954 7.09503 28.84L1.50626 19.1599C0.377308 17.2045 0.377307 14.7954 1.50626 12.84L7.09503 3.15992C8.22398 1.20452 10.3104 -6.10567e-05 12.5683 -6.10352e-05L23.7458 -6.09285e-05Z"/>
</mask>
<path d="M7.09503 3.15992L7.96105 3.65992V3.65992L7.09503 3.15992ZM12.5683 -6.10352e-05V0.999939V-6.10352e-05ZM1.50626 19.1599L2.37229 18.6599L1.50626 19.1599ZM1.50626 12.84L0.640235 12.34H0.640235L1.50626 12.84ZM12.5683 31.9999V30.9999V31.9999ZM7.09503 28.84L6.229 29.34L7.09503 28.84ZM29.2191 28.84L30.0851 29.34L29.2191 28.84ZM23.7458 31.9999V32.9999H23.7458L23.7458 31.9999ZM34.8078 12.84L33.9418 13.34L34.8078 12.84ZM34.8078 19.1599L33.9418 18.6599L34.8078 19.1599ZM29.2191 3.15992L30.0851 2.65992L29.2191 3.15992ZM23.7458 -6.09285e-05L23.7458 -1.00006L23.7458 -6.09285e-05ZM28.353 3.65992L33.9418 13.34L35.6739 12.34L30.0851 2.65992L28.353 3.65992ZM33.9418 18.6599L28.353 28.34L30.0851 29.34L35.6739 19.6599L33.9418 18.6599ZM23.7458 30.9999H12.5683V32.9999H23.7458V30.9999ZM7.96106 28.34L2.37229 18.6599L0.640236 19.6599L6.229 29.34L7.96106 28.34ZM2.37229 13.34L7.96105 3.65992L6.229 2.65992L0.640235 12.34L2.37229 13.34ZM12.5683 0.999939L23.7458 0.999939L23.7458 -1.00006L12.5683 -1.00006V0.999939ZM7.96105 3.65992C8.91138 2.01392 10.6676 0.999939 12.5683 0.999939V-1.00006C9.95311 -1.00006 7.53659 0.395118 6.229 2.65992L7.96105 3.65992ZM2.37229 18.6599C1.42197 17.0139 1.42197 14.986 2.37229 13.34L0.640235 12.34C-0.667351 14.6048 -0.66735 17.3951 0.640236 19.6599L2.37229 18.6599ZM12.5683 30.9999C10.6676 30.9999 8.91138 29.986 7.96106 28.34L6.229 29.34C7.53659 31.6048 9.95311 32.9999 12.5683 32.9999V30.9999ZM28.353 28.34C27.4027 29.986 25.6465 30.9999 23.7458 30.9999L23.7458 32.9999C26.361 32.9999 28.7775 31.6048 30.0851 29.34L28.353 28.34ZM33.9418 13.34C34.8921 14.986 34.8921 17.0139 33.9418 18.6599L35.6739 19.6599C36.9815 17.3951 36.9815 14.6048 35.6739 12.34L33.9418 13.34ZM30.0851 2.65992C28.7775 0.395116 26.361 -1.00006 23.7458 -1.00006L23.7458 0.999939C25.6465 0.999939 27.4027 2.01392 28.353 3.65992L30.0851 2.65992Z" fill="#C8E400" mask="url(#path-1-inside-1_731_7061)"/>
<path d="M9.04658 20.9999H14.1946V20.0879H10.0546V17.2079H13.8826V16.2959H10.0546V13.6319H14.1226V12.7199H9.04658V20.9999ZM15.4979 20.9999H16.5059V17.3999H18.0659L19.9499 20.9999H21.1259L19.4339 17.8799L19.0619 17.5079V17.1959L19.3859 17.1119C20.3699 16.8599 20.9099 16.1039 20.9099 14.9639C20.9099 13.4639 19.9739 12.7199 18.0779 12.7199H15.4979V20.9999ZM16.5059 16.4879V13.6319H18.1379C19.3619 13.6319 19.8539 14.0399 19.8539 15.0359C19.8539 16.0319 19.3619 16.4879 18.2579 16.4879H16.5059ZM24.7812 21.1919C26.4372 21.1919 27.6972 20.4239 27.6972 18.7079C27.6972 17.4239 27.0132 16.8119 25.7292 16.4159L24.2532 15.9599C23.5572 15.7439 23.1972 15.3839 23.1972 14.7599C23.1972 13.9319 23.8332 13.4879 24.8172 13.4879C25.7892 13.4879 26.4492 13.9199 26.5332 14.7119H27.5172C27.4572 13.3199 26.3532 12.5279 24.8532 12.5279C23.3532 12.5279 22.1652 13.3199 22.1652 14.8439C22.1652 15.9359 22.7412 16.5719 23.9772 16.9559L25.4652 17.4119C26.2932 17.6639 26.6532 18.0959 26.6532 18.7799C26.6532 19.7519 25.9452 20.2319 24.8292 20.2319C23.6772 20.2319 22.9812 19.7159 22.9452 18.7439H21.9252C21.9732 20.3399 23.0172 21.1919 24.7812 21.1919Z" fill="#C8E400"/>
</svg>
