<svg width="135" height="22" viewBox="0 0 135 22" fill="none" xmlns="http://www.w3.org/2000/svg">
<path d="M9.92671 0.0194397V14.9095H7.44989V0.0194397H0V17.3863H2.47682V2.49626H4.96335V17.3863H12.4035V2.49626H14.8901V17.3863H17.3669V0.0194397H9.92671Z" fill="#989993"/>
<path d="M39.6971 4.98279V7.46932H47.147V9.94614H39.6971V17.396H49.6239V4.98279H39.6971ZM47.1373 14.9095H44.6605H42.174V12.423H44.6605H47.1373V14.9095Z" fill="#989993"/>
<path d="M34.7337 7.4596H37.2203V4.98278H34.7337V2.10773H32.2472V17.3863H37.2203V14.9095H34.7337V7.4596Z" fill="#989993"/>
<path d="M52.1104 17.3863H54.6649V9.90728H62.9209V7.48874H54.6649V2.41854H63.4649V0H52.1104V17.3863Z" fill="#989993"/>
<path d="M69.9143 4.73996C67.8163 4.73996 66.2331 5.61413 65.2132 7.34305L65.0675 7.58588L66.8839 9.2468L67.0879 8.80972C67.5638 7.76071 68.6711 7.09051 69.8949 7.09051C71.5267 7.09051 72.498 7.98411 72.498 9.47992V10.2084C71.3713 9.90729 70.3903 9.75188 69.5744 9.75188C66.6702 9.75188 64.8053 11.3254 64.8053 13.7731C64.8053 16.0653 66.6119 17.668 69.1859 17.668C70.5263 17.668 71.653 17.3183 72.5466 16.6384V17.4057H75.0137V9.65475C75.004 6.57572 73.1002 4.73996 69.9143 4.73996ZM69.283 15.3757C68.0883 15.3757 67.3113 14.7541 67.3113 13.8022C67.3113 12.3064 68.7876 12.083 69.6715 12.083C70.5263 12.083 71.449 12.2384 72.498 12.5589V13.7536C71.7307 14.7444 70.4874 15.3757 69.283 15.3757Z" fill="#989993"/>
<path d="M86.8151 13.7245C85.9894 14.7735 84.9404 15.3077 83.6972 15.3077C81.2981 15.3077 79.7537 13.6954 79.7537 11.2088C79.7537 10.0238 80.1228 9.04283 80.8513 8.28521C81.5992 7.49846 82.5025 7.10994 83.6195 7.10994C84.785 7.10994 85.7563 7.58588 86.6014 8.55718L86.8442 8.83886L88.5731 7.18764L88.3594 6.9351C87.1259 5.47815 85.5329 4.73996 83.6195 4.73996C81.8323 4.73996 80.2976 5.38102 79.0446 6.65343C77.8111 7.90641 77.1895 9.44106 77.1895 11.2088C77.1895 13.0057 77.8014 14.5404 78.9961 15.7837C80.2199 17.0172 81.7449 17.6486 83.5418 17.6486C85.5718 17.6486 87.2716 16.8521 88.6023 15.2883L88.8257 15.0261L87.0482 13.4331L86.8151 13.7245Z" fill="#989993"/>
<path d="M93.1187 2.14658H90.603V13.6079C90.603 16.2208 91.8172 17.4349 94.4202 17.4349C94.867 17.4349 95.2944 17.4057 95.5664 17.3863L95.8966 17.3572V15.0746L94.5951 15.1038C93.4198 15.1038 93.1187 14.7444 93.1187 13.336V7.37219H95.9063V5.05077H93.1187V2.14658Z" fill="#989993"/>
<path d="M104.046 4.73996C102.239 4.73996 100.705 5.38102 99.4905 6.634C98.286 7.87727 97.6838 9.42164 97.6838 11.2088C97.6838 12.996 98.2958 14.5404 99.4905 15.7837C100.714 17.0172 102.239 17.6486 104.036 17.6486C105.852 17.6486 107.387 17.0172 108.611 15.7837C109.825 14.521 110.447 12.9863 110.447 11.2088C110.447 9.42164 109.825 7.88698 108.592 6.634C107.387 5.37131 105.852 4.73996 104.046 4.73996ZM104.046 15.3077C102.958 15.3077 102.035 14.9192 101.326 14.1616C100.607 13.3748 100.248 12.3841 100.248 11.2088C100.248 10.0336 100.607 9.04283 101.326 8.28521C102.035 7.50817 102.948 7.10994 104.046 7.10994C105.173 7.10994 106.076 7.48875 106.795 8.28521C107.513 9.04283 107.873 10.0336 107.873 11.2088C107.873 12.3841 107.513 13.3748 106.795 14.1616C106.076 14.9192 105.153 15.3077 104.046 15.3077Z" fill="#989993"/>
<path d="M118.965 4.85651C117.411 4.85651 116.352 5.19646 115.41 6.0415V5.02163H112.943V17.3863H115.459V12.0636C115.459 8.5086 116.411 7.25562 119.091 7.25562C119.218 7.25562 119.354 7.25562 119.441 7.27505L119.859 7.35275V4.9245L119.558 4.88565C119.363 4.85651 119.15 4.85651 118.965 4.85651Z" fill="#989993"/>
<path d="M131.349 5.02164L127.726 14.113L124.035 5.02164H121.238L126.347 17.1823L124.395 22H127.134L134.117 5.02164H131.349Z" fill="#989993"/>
<path d="M19.8438 4.98279V17.3863H29.7705V14.9095H22.3206V12.423H29.7705V4.98279H19.8438ZM27.2839 9.94614H24.7974H22.3206V7.45961H24.7974H27.2839V9.94614Z" fill="#989993"/>
</svg>
